<?xml version="1.0" standalone="no"?>
<!DOCTYPE svg PUBLIC "-//W3C//DTD SVG 20010904//EN"
 "http://www.w3.org/TR/2001/REC-SVG-20010904/DTD/svg10.dtd">
<svg version="1.0" xmlns="http://www.w3.org/2000/svg"
 width="1008.000000pt" height="1008.000000pt" viewBox="0 0 1008.000000 1008.000000"
 preserveAspectRatio="xMidYMid meet">
<metadata>
Created by potrace 1.14, written by Peter Selinger 2001-2017
</metadata>
<g transform="translate(0.000000,1008.000000) scale(0.100000,-0.100000)"
fill="#000000" stroke="none">
<path d="M10024 9733 c-78 -93 -268 -275 -379 -363 -39 -30 -72 -57 -75 -60
-29 -35 -402 -280 -425 -280 -4 0 -19 -9 -35 -20 -15 -11 -30 -17 -34 -13 -3
3 -6 1 -6 -5 0 -7 -9 -12 -20 -12 -11 0 -20 -4 -20 -10 0 -5 -7 -10 -15 -10
-8 0 -45 -13 -82 -29 -38 -16 -106 -43 -153 -61 -47 -18 -107 -41 -134 -51
-27 -11 -52 -19 -57 -19 -4 0 -20 -5 -36 -12 -15 -6 -32 -12 -38 -14 -5 -1
-30 -9 -55 -17 -72 -24 -224 -71 -235 -73 -5 0 -37 -9 -70 -19 -33 -10 -64
-20 -70 -21 -5 -2 -35 -10 -65 -19 -30 -8 -68 -17 -84 -20 -16 -3 -36 -10 -45
-14 -9 -5 -20 -9 -26 -10 -9 -1 -65 -12 -87 -17 -5 -1 -13 -2 -18 -3 -17 -2
-184 -176 -295 -306 -27 -32 -59 -68 -70 -81 -11 -12 -33 -39 -50 -59 -16 -21
-42 -52 -56 -69 -14 -17 -54 -69 -89 -116 -34 -47 -64 -87 -67 -90 -3 -3 -2
29 1 70 16 180 25 465 15 474 -2 2 -38 -13 -79 -33 -41 -20 -100 -47 -130 -60
-30 -13 -84 -37 -120 -54 -36 -17 -74 -33 -85 -34 -10 -2 -22 -7 -25 -12 -3
-5 -16 -12 -30 -16 -14 -4 -50 -18 -80 -32 -62 -28 -77 -34 -140 -61 -74 -31
-85 -35 -92 -34 -5 1 -8 -3 -8 -8 0 -5 -3 -9 -7 -8 -7 2 -64 -18 -148 -52 -19
-8 -54 -21 -65 -25 -3 -1 -12 -4 -20 -8 -8 -3 -69 -24 -135 -47 -66 -22 -127
-43 -135 -47 -8 -3 -17 -7 -20 -8 -30 -7 -176 -59 -180 -64 -3 -3 -14 -8 -25
-10 -39 -6 -274 -102 -293 -119 -11 -9 -29 -51 -41 -92 -12 -41 -25 -82 -28
-90 -3 -8 -7 -19 -8 -25 0 -5 -4 -17 -8 -25 -3 -8 -25 -71 -47 -140 -43 -129
-142 -402 -165 -455 -17 -37 -43 -103 -46 -113 -6 -21 -100 -194 -113 -208 -9
-8 -16 -18 -16 -22 0 -12 -106 -128 -166 -183 -72 -65 -221 -159 -262 -165
-13 -2 -1 21 67 126 20 30 47 76 61 103 14 26 28 47 32 47 5 0 8 9 8 19 0 11
4 21 9 23 8 3 131 239 131 252 0 2 5 17 12 33 6 15 12 33 13 38 2 6 10 32 19
58 9 27 17 60 18 73 1 13 5 24 9 24 4 0 10 19 14 43 4 23 9 47 10 52 2 6 6 24
10 40 9 42 13 60 15 60 1 0 3 14 5 30 2 17 7 46 10 65 26 153 37 288 24 296
-10 6 -162 -50 -186 -69 -7 -5 -13 -7 -13 -4 0 3 -21 -3 -47 -14 -27 -11 -57
-24 -68 -29 -11 -4 -41 -17 -67 -29 -26 -12 -50 -21 -53 -21 -3 0 -42 -17 -88
-39 -45 -21 -109 -51 -142 -66 -112 -51 -498 -248 -520 -264 -5 -5 -35 -22
-65 -38 -86 -47 -154 -86 -225 -130 -11 -7 -40 -24 -65 -39 -25 -15 -96 -62
-159 -103 -62 -42 -120 -80 -129 -86 -9 -5 -22 -14 -28 -20 -7 -5 -28 -20 -46
-33 -18 -13 -80 -57 -138 -98 -58 -41 -123 -87 -145 -102 -22 -15 -51 -37 -65
-49 -14 -13 -30 -23 -37 -23 -6 0 -13 -4 -15 -8 -1 -4 -57 -48 -123 -97 -66
-49 -122 -92 -125 -95 -3 -3 -23 -19 -45 -35 -48 -36 -48 -36 -157 -124 -47
-39 -99 -84 -116 -100 -28 -29 -48 -81 -31 -81 5 0 8 -3 7 -7 -2 -9 6 -64 32
-213 6 -34 13 -77 16 -98 2 -20 7 -48 10 -62 5 -26 5 -310 0 -370 -7 -75 -18
-172 -21 -189 -2 -10 -6 -42 -10 -72 -4 -30 -9 -57 -10 -60 -2 -3 -7 -28 -11
-55 -3 -27 -10 -59 -15 -72 -5 -13 -7 -27 -4 -32 3 -5 0 -12 -6 -15 -5 -4 -8
-13 -5 -21 3 -7 1 -16 -5 -19 -5 -4 -6 -12 -3 -18 4 -7 4 -9 0 -6 -4 4 -8 155
-10 335 -3 340 -7 389 -55 633 -6 29 -8 57 -5 62 3 5 1 9 -3 9 -5 0 -10 10
-11 23 -3 34 -7 51 -13 62 -4 6 -9 23 -13 40 -10 41 -26 48 -49 22 -10 -12
-35 -42 -55 -65 -20 -24 -44 -51 -52 -61 -8 -9 -31 -37 -50 -61 -19 -25 -39
-50 -45 -56 -5 -6 -21 -27 -35 -47 -14 -20 -28 -37 -32 -37 -5 0 -8 -5 -8 -10
0 -6 -11 -22 -25 -36 -14 -14 -25 -28 -25 -33 0 -4 -8 -16 -18 -27 -10 -10
-48 -62 -84 -114 -37 -52 -71 -100 -75 -105 -7 -10 -30 -49 -57 -100 -6 -11
-14 -22 -17 -25 -3 -3 -32 -52 -64 -110 -33 -58 -62 -107 -65 -110 -3 -3 -6
-11 -8 -19 -2 -8 -11 -26 -21 -40 -15 -22 -93 -176 -96 -191 -1 -3 -7 -18 -14
-35 -7 -16 -14 -34 -15 -40 -2 -5 -8 -29 -16 -52 -11 -37 -11 -49 5 -100 10
-32 18 -59 17 -60 -1 -2 5 -21 13 -43 8 -22 12 -40 10 -40 -2 0 2 -17 9 -38 7
-20 17 -59 21 -87 5 -27 10 -57 11 -65 4 -18 16 -133 19 -177 1 -18 -2 -33 -7
-33 -5 0 -6 -5 -2 -12 16 -25 -30 -365 -51 -387 -9 -8 -15 5 -17 35 -1 16 -4
34 -7 39 -3 6 -7 19 -8 30 -6 44 -27 122 -41 155 -9 19 -16 37 -16 40 -1 3
-11 19 -24 37 -12 17 -22 34 -22 38 0 3 -6 13 -13 20 -14 16 -18 22 -67 85
-75 98 -241 252 -256 237 -3 -2 4 -24 14 -48 21 -48 34 -78 37 -94 2 -5 12
-35 23 -65 19 -50 66 -208 77 -256 25 -116 47 -241 51 -294 9 -123 10 -255 2
-272 -5 -10 -4 -19 2 -23 6 -4 8 -11 4 -16 -5 -9 -9 -70 -17 -309 -1 -30 -6
-61 -10 -67 -5 -8 -3 -13 3 -13 6 0 8 -5 4 -12 -4 -6 -6 -34 -5 -61 l1 -50
-18 24 c-16 22 -82 118 -107 157 -14 22 -143 152 -150 152 -4 0 -25 13 -48 29
-58 39 -143 81 -151 74 -3 -4 -6 -2 -6 4 0 10 -20 18 -70 30 -8 2 -32 5 -53 7
-20 1 -40 6 -43 9 -3 3 -16 1 -29 -5 -16 -7 -20 -14 -14 -22 5 -6 19 -22 31
-36 103 -122 287 -495 314 -639 3 -14 7 -28 10 -33 3 -4 7 -16 9 -25 2 -10 9
-40 15 -68 13 -55 16 -71 25 -130 3 -22 7 -47 10 -55 4 -16 14 -89 20 -150 2
-19 7 -57 11 -85 4 -27 8 -69 8 -92 1 -24 3 -43 6 -43 3 0 5 -22 4 -50 0 -27
2 -50 5 -50 3 0 7 -30 7 -68 1 -37 4 -114 8 -172 4 -58 9 -145 11 -195 6 -149
17 -466 19 -532 1 -58 3 -63 23 -63 12 0 25 5 29 12 4 7 9 73 10 148 3 124 12
345 14 345 2 0 13 143 14 178 1 15 3 27 6 27 3 0 6 15 6 33 3 58 8 87 17 87 4
0 5 5 2 10 -12 20 49 240 67 240 4 0 8 6 8 13 0 7 15 36 34 65 19 28 33 52 30
52 -3 0 7 12 21 28 14 15 28 36 32 47 3 11 14 29 24 40 34 37 109 138 109 147
0 5 5 6 10 3 6 -3 10 -2 10 3 0 15 83 108 233 261 66 67 85 91 67 86 -14 -4
-29 -11 -35 -16 -5 -5 -16 -9 -25 -9 -8 0 -28 -7 -44 -15 -15 -8 -38 -17 -50
-19 -11 -2 -34 -11 -51 -19 -16 -8 -41 -18 -55 -22 -22 -7 -23 -6 -8 9 9 9 22
16 29 16 7 0 9 3 6 6 -3 4 6 16 21 27 24 19 159 134 172 147 3 3 30 25 60 50
30 25 72 60 92 79 21 19 48 41 60 49 13 9 25 18 28 22 20 24 262 190 355 245
28 16 64 37 80 47 82 48 455 221 472 219 2 0 8 1 15 4 124 42 301 85 399 98
20 2 42 8 48 11 6 4 11 2 11 -4 0 -6 5 -8 13 -3 14 9 23 10 102 18 33 3 85 9
117 13 31 5 66 8 77 7 12 -1 21 1 21 4 0 3 24 6 52 6 29 0 87 4 128 7 41 4 79
7 83 8 11 0 -8 18 -73 65 -73 53 -144 99 -149 96 -2 -2 -7 2 -10 7 -5 8 -68
45 -81 47 -3 1 -25 10 -50 22 -25 11 -67 28 -95 38 -27 9 -59 21 -70 25 -11 5
-33 11 -50 14 -16 4 -43 9 -60 12 -52 11 -60 12 -60 14 0 3 -37 9 -85 14 -25
3 -63 8 -84 12 -22 3 -65 7 -95 9 -31 2 -96 7 -146 10 -49 3 -111 7 -137 9
-57 3 -76 15 -27 17 37 2 52 3 114 13 22 3 72 8 110 11 39 4 86 8 105 10 19 2
71 7 115 10 44 4 96 8 115 10 154 14 272 19 440 19 175 0 235 -3 390 -18 55
-5 155 -22 155 -26 0 -1 12 -3 26 -5 15 -2 44 -7 65 -11 72 -13 152 -9 182 9
6 5 12 6 12 2 0 -3 13 1 30 10 16 8 38 15 50 15 11 0 20 5 20 10 0 6 3 9 8 8
13 -3 245 74 392 129 8 3 20 7 25 9 18 5 210 76 230 85 11 4 67 26 125 48 58
22 143 56 190 76 47 20 90 38 95 40 6 1 20 6 33 10 12 4 22 11 22 14 0 4 6 8
13 8 6 0 71 28 142 63 72 34 132 61 134 60 2 -1 7 2 10 7 3 4 47 28 96 53 50
24 167 87 260 139 94 52 188 104 210 115 22 12 42 23 45 26 3 3 61 39 130 80
69 41 127 77 130 81 3 3 19 14 37 24 18 10 30 22 27 27 -4 6 -43 20 -96 34 -5
1 -9 2 -10 4 -2 1 -11 3 -20 6 -10 2 -26 6 -35 8 -10 3 -18 5 -18 6 0 1 -7 3
-15 5 -8 2 -67 18 -130 35 -63 16 -131 33 -150 36 -19 3 -51 9 -70 14 -30 8
-59 14 -127 24 -7 1 -15 5 -19 8 -3 4 -12 4 -20 1 -8 -3 -14 0 -14 6 0 6 -6 8
-13 5 -8 -3 -34 0 -58 6 -24 6 -51 11 -59 12 -8 0 -46 6 -85 13 -38 8 -86 16
-105 19 -19 3 -57 10 -85 15 -27 5 -68 12 -90 16 -22 3 -51 8 -65 11 -14 3
-38 7 -55 10 -38 7 -76 14 -95 19 -8 2 -23 4 -32 4 -10 1 -18 5 -18 10 0 4 17
5 38 1 21 -4 48 -3 60 1 12 5 22 5 22 1 0 -4 64 -8 143 -9 461 -5 707 -12 716
-17 6 -4 11 -3 11 2 0 5 10 8 23 6 12 -1 22 -3 22 -4 0 -1 98 -2 218 -3 119
-1 217 1 217 4 0 4 16 3 35 -1 19 -4 37 -4 40 1 3 4 16 4 29 -1 13 -5 26 -6
29 -3 4 3 93 6 199 8 l193 2 84 42 c130 64 315 182 396 251 94 81 327 311 432
427 58 64 79 88 163 192 19 24 40 48 45 55 13 13 183 233 207 267 9 13 46 64
82 112 37 48 66 92 66 98 0 5 5 9 10 9 6 0 10 7 10 15 0 8 4 15 8 15 5 0 35
41 68 90 32 50 62 90 66 90 4 0 8 5 8 11 0 6 20 40 45 76 25 35 45 68 45 73 0
4 3 10 8 12 11 5 103 148 95 148 -5 0 -2 4 6 9 7 5 30 36 50 69 20 33 77 128
128 211 51 83 88 153 82 156 -5 4 -9 1 -9 -4 0 -6 -11 -11 -24 -11 -13 0 -29
-7 -36 -15 -6 -8 -15 -14 -18 -13 -4 1 -47 -11 -97 -27 -49 -16 -94 -29 -100
-30 -5 -1 -13 -3 -17 -5 -12 -4 -19 -5 -68 -14 -25 -5 -54 -10 -65 -13 -23 -5
-45 -9 -95 -17 -19 -3 -46 -7 -60 -10 -14 -2 -47 -7 -75 -11 -53 -7 -59 0 -10
10 17 3 35 7 40 9 6 2 31 9 58 16 26 7 50 16 52 21 3 4 12 6 20 2 8 -3 15 0
15 6 0 6 8 11 19 11 23 0 252 115 280 141 12 11 21 17 21 14 0 -3 18 7 40 21
22 15 40 31 40 36 0 5 4 7 9 4 5 -4 11 -3 13 1 1 5 26 26 53 47 65 52 240 227
291 291 21 28 42 52 45 55 10 8 145 211 170 255 43 76 129 250 129 263 0 7 4
20 10 30 9 16 36 103 93 292 47 154 58 196 73 269 3 14 7 28 10 33 3 4 7 17
10 28 9 42 13 57 29 120 9 36 19 73 21 83 2 9 7 27 10 40 3 12 7 29 9 37 1 8
5 22 8 30 4 8 9 26 11 40 8 42 14 68 31 133 9 34 18 71 20 82 1 11 7 40 13 65
6 24 10 46 8 47 -1 2 -20 -18 -42 -44z"/>
</g>
</svg>
