<svg xmlns="http://www.w3.org/2000/svg" fill="#5b0eeb" class="ionicon" viewBox="0 0 384 384"><title>Show Contents</title>
<path d="M307.5,316.5h-231c-9.1,0-16.5-7.4-16.5-16.5s7.4-16.5,16.5-16.5h231c9.1,0,16.5,7.4,16.5,16.5S316.6,316.5,307.5,316.5z
	 M307.5,244.5h-231c-9.1,0-16.5-7.4-16.5-16.5s7.4-16.5,16.5-16.5h231c9.1,0,16.5,7.4,16.5,16.5S316.6,244.5,307.5,244.5z
	 M307.5,172.5h-231c-9.1,0-16.5-7.4-16.5-16.5s7.4-16.5,16.5-16.5h231c9.1,0,16.5,7.4,16.5,16.5S316.6,172.5,307.5,172.5z
	 M307.5,100.5h-231C67.4,100.5,60,93.1,60,84s7.4-16.5,16.5-16.5h231c9.1,0,16.5,7.4,16.5,16.5S316.6,100.5,307.5,100.5z"/>
</svg>
