<svg xmlns="http://www.w3.org/2000/svg" fill="#5b0eeb" viewBox="0 0 252.2 237.9"><title>Feather</title>
<path d="M123.7,119.9c12.9,2.6,26.1,4,38.6,8.3c0,0.1-17.1,11.1-33.3,18c-7.3,3.3-30.3,11.2-30.6,11.1c-6.1-0.7-6.5-1.8-18.2-2
	c-4.6-0.3-26.1,1.9-26.9,2.2c0,0.1,11.9,0.5,16.8,1.7c9.8,2,15.2,7.2,16.8,8.3c0,0.1-17.1,1-24.3,3.4c-8.9,2.9-17,7.3-24.4,12.9
	C34,187.1,25.3,194.8,25,195c2.6-1,5.4-2.1,8.1-3.1c0.3-0.1-10,8.7-15.6,19.4c-2.9,6.1-2.9,24.3-2.9,26.5c0,0-2.6,0.1-1.4,0.1
	c-0.4-5-0.3-24.9-2.8-38.9C8.7,188.1,3.3,178.8,0,175.3c1.8-0.9,6.3,0.5,10.3,3.3c3.1,2.2,5.1,5.3,7.1,8.6c0-0.7,0.7-11.9,0.7-16.9
	c0.1-9.6-4.5-21.1-5.5-22.9c1.6,0,9.4,8.3,10.5,12.3c0.6,2.1,0.9,4.3,1.4,6.4c0,0.1,2.4-7.7,1.3-15.2c-0.7-5.1-2.7-10.3-2.6-10.7
	c0.9-1.8-0.2-2.4,8.6-17.1c2.3-4.2,12.2-16.8,14.2-18.6c0.9-0.8,2.5,9.5,3,13.6c0.7,5.2,0,16.5,0.2,17c0.3-0.7,3.1-10.8,2.6-22.2
	c-0.2-3.7-2-11.7-1.8-12.1c3-3.7,24.5-19.1,31.4-23.6c21.1-13.5,40.9-20.3,41.4-20.5c-0.3,6.6-1.6,12.8-3.6,18.9
	c-2,6.2-9,16.3-8.7,16.2c4.9-2,8.6-5.4,11.6-9.6c3.3-4.5,9.8-24.2,10.9-28.4c0.3-1,15.4-5.9,22.4-8.5c6-2.3,21.5-9.1,23.5-10.2
	c0.4,5-0.7,14.3-0.5,14c3.9-6.2,14.8-18,15.5-18.2c11.3-2.8,22.4-6.1,33-10.8c14.1-7.2,24-18.4,25.1-20.2c0,0.7-6.7,29.4-10.2,36.4
	c-14.2,28.4-37.2,28-37.3,28.2c7.4-0.8,16.2-1.8,23.3-5.2c-1.1,2-20.8,35.7-38.4,51.2c-4.9,5.2-14.2,9.8-15.1,9.8
	c-6.4,0.1-12.9,0.2-19.3,0.2c-6.2,0-26.9-0.5-31-0.6C124.1,119.8,123.9,119.9,123.7,119.9z"/>
</svg>
