<?xml version="1.0" encoding="utf-8"?>
<!-- Generator: Adobe Illustrator 23.0.1, SVG Export Plug-In . SVG Version: 6.00 Build 0)  -->
<svg version="1.1" id="Layer_1" xmlns="http://www.w3.org/2000/svg" xmlns:xlink="http://www.w3.org/1999/xlink" x="0px" y="0px"
	 viewBox="0 0 384 384" style="enable-background:new 0 0 384 384;" xml:space="preserve">
<style type="text/css">
	.st0{fill:none;stroke:#5B0EEB;stroke-width:30;stroke-linecap:round;stroke-miterlimit:10;}
	.st1{fill:#5B0EEB;}
</style>
<path class="st0" d="M120,123c0,0,1.1-24.8,25.2-44.6C159.4,66.6,176.6,63.2,192,63c14-0.2,26.6,2.2,34.1,5.9
	C238.9,75.1,264,90.4,264,123c0,34.3-21.9,49.8-46.8,66.9C192.4,207,186,223.8,186,243"/>
<path class="st1" d="M210,300c0,13.3-10.7,24-24,24s-24-10.7-24-24s10.7-24,24-24S210,286.7,210,300"/>
</svg>
