<svg xmlns="http://www.w3.org/2000/svg" fill="#5b0eeb" class="ionicon" viewBox="0 0 384 384"><title>Hide Contents</title>
<path d="M307.5,100.5c9.1,0,16.5-7.4,16.5-16.5c0-9.1-7.4-16.5-16.5-16.5H134.6l33,33H307.5z"/>
<path d="M60,156c0,9.1,7.4,16.5,16.5,16.5h26.7l-32.1-32.1C64.7,142.6,60,148.8,60,156z"/>
<path d="M324,228c0-9.1-7.4-16.5-16.5-16.5h-28.9l32.6,32.6C318.5,242.4,324,235.8,324,228z"/>
<path d="M307.5,172.5c9.1,0,16.5-7.4,16.5-16.5c0-9.1-7.4-16.5-16.5-16.5H206.6l33,33H307.5z"/>
<path d="M76.5,211.5c-9.1,0-16.5,7.4-16.5,16.5c0,9.1,7.4,16.5,16.5,16.5h98.7l-33-33H76.5z"/>
<path d="M76.5,283.5c-9.1,0-16.5,7.4-16.5,16.5c0,9.1,7.4,16.5,16.5,16.5h170.7l-33-33H76.5z"/>
<path d="M339,355c-3.5,0-6.9-1.3-9.5-4L34.5,54.5c-5.2-5.3-5.2-13.8,0-19c5.3-5.2,13.8-5.2,19,0l295,296.5
	c5.2,5.3,5.2,13.8,0,19C345.9,353.7,342.4,355,339,355z"/>
</svg>
