<svg xmlns="http://www.w3.org/2000/svg" class="ionicon" viewBox="0 0 512 512">
<style type="text/css">
	.st0{fill:#5B0EEB;}
</style>
<title>Hide Numbers</title>
<path class="st0" d="M448,280c13.3,0,24-10.7,24-24s-10.7-24-24-24H312l48,48H448z"/>
<path class="st0" d="M136,256c0,13.3,10.7,24,24,24h37.7l-46.4-46.4C142.3,237.1,136,245.8,136,256z"/>
<path class="st0" d="M448,168c13.3,0,24-10.7,24-24c0-13.3-10.7-24-24-24H200l48,48H448z"/>
<path class="st0" d="M472,368c0-13.3-10.7-24-24-24h-24l41,41C469.3,380.6,472,374.7,472,368z"/>
<path class="st0" d="M160,344c-13.3,0-24,10.7-24,24s10.7,24,24,24h149.7l-48-48H160z"/>
<path class="st0" d="M48,144c0,17.6,14.4,32,32,32c4.1,0,8-0.8,11.6-2.2l-41.4-41.4C48.8,136,48,139.9,48,144z"/>
<circle class="st0" cx="80" cy="256" r="32"/>
<circle class="st0" cx="80" cy="368" r="32"/>
<path class="st0" d="M432,449c-4.1,0-8.2-1.6-11.3-4.7l-352-352c-6.2-6.2-6.2-16.4,0-22.6c6.2-6.2,16.4-6.2,22.6,0l352,352
	c6.2,6.2,6.2,16.4,0,22.6C440.2,447.4,436.1,449,432,449z"/>
</svg>
