<svg xmlns="http://www.w3.org/2000/svg" fill="#5b0eeb" class="ionicon" viewBox="0 0 384 384"><title>Hide Notes</title>
<path d="M326.8,65.7c1.1,1.1,2.7,1.8,4.3,1.8c1.6,0,3.1-0.6,4.3-1.8l9-9c4.6-4.6,5-12,0.6-16.8c-2.2-2.4-5.3-3.9-8.6-3.9
	c-3.3-0.1-6.5,1.2-8.8,3.5l-9.3,9.2c-2.3,2.3-2.3,6.1,0,8.5L326.8,65.7z"/>
<path d="M316.5,84.5c2.6-2.6,2.6-6.9,0-9.5l-7.5-7.5c-2.6-2.6-6.9-2.6-9.5,0l-83.9,83.7l17.1,17.1L316.5,84.5z"/>
<path d="M238.8,94.2c1.7-1.7,2.2-4.3,1.3-6.5c-0.9-2.2-3.1-3.7-5.5-3.7h-86.1l50.3,50.3L238.8,94.2z"/>
<path d="M300,149.5c0-2.4-1.5-4.6-3.7-5.5c-2.2-0.9-4.8-0.4-6.5,1.3l-40,40.1l50.3,50.3V149.5z"/>
<path d="M166.3,251c-9.4,2.6-19.5,0-26.4-6.9c-6.9-6.9-9.5-17-6.9-26.4l3-9.1l-97.4-97.4c-1.7,4.6-2.7,9.5-2.7,14.7v180
	c0,23.2,18.8,42,42,42h180c5.2,0,10.1-0.9,14.7-2.7L175.3,248L166.3,251z"/>
<path d="M337,357c-3.5,0-6.9-1.3-9.5-4L32.5,56.5c-5.2-5.3-5.2-13.8,0-19c5.3-5.2,13.8-5.2,19,0l295,296.5c5.2,5.3,5.2,13.8,0,19
	C343.9,355.7,340.4,357,337,357z"/>
</svg>
