<svg xmlns="http://www.w3.org/2000/svg" viewBox="0 0 384 384">
<style type="text/css">
	.st0{fill:#5B0EEB;}
</style>
<title>Hide Commentary</title>
<path class="st0" d="M96.7,167.9L24,95.2V234c0,29.8,24.2,54,54,54h18v48c0,4.7,2.7,8.9,6.9,10.9c4.2,2,9.2,1.3,12.8-1.7l68.6-57.2
	h32.5L114.1,185.2C105.7,176.9,96.7,167.9,96.7,167.9z"/>
<path class="st0" d="M339.5,276.3C352,266.4,360,251.2,360,234V90c0-29.8-24.2-54-54-54H99.2l105.7,105.7
	C211.3,148,339.5,276.3,339.5,276.3z M247,145c6.9-6.9,17.2-8.9,26.2-5.2c9,3.7,14.8,12.5,14.8,22.2c0,13.3-10.7,24-24,24
	c-9.7,0-18.5-5.8-22.2-14.8C238.1,162.2,240.1,151.9,247,145z"/>
<path class="st0" d="M324,338.8c-3.3,0-6.6-1.3-9.1-3.8L33.7,53c-5-5-5-13.1,0-18.1c5-5,13.1-5,18.1,0L333.1,317c5,5,5,13.1,0,18.1
	C330.5,337.6,327.3,338.8,324,338.8z"/>
</svg>
