<svg xmlns="http://www.w3.org/2000/svg" fill="#5b0eeb" class="ionicon" viewBox="0 0 384 384"><title>Hide Tutor Notes</title>
<path d="M312.1,219.6c0-2.1-1.1-4.1-3-5.2c-1.9-1.1-4.1-1.1-6,0l-13.7,7.9l22.7,22.7V219.6z"/>
<path d="M198.1,274.4c-2,1.1-4,1.6-6.1,1.6c-2.1,0-4.1-0.5-6-1.6l-105-60c-1.9-1.1-4.1-1.1-6,0c-1.9,1.1-3,3.1-3,5.2V276
	c0,4.4,2.4,8.4,6.2,10.5l108,60c3.6,2,8,2,11.7,0l51-28.3l-46.3-46.3L198.1,274.4z"/>
<path d="M18,133.6c-3.7,2.1-6,6.1-6,10.4s2.3,8.3,6,10.4l156.7,89.5L47.5,116.8L18,133.6z"/>
<path d="M345.8,166c1-0.6,2.3,0.1,2.3,1.3v108.4c0,6.5,5,12,11.4,12.3c3.3,0.2,6.5-1,8.9-3.3c2.4-2.3,3.7-5.4,3.7-8.7V144
	c-0.1-0.4-0.1-0.7-0.2-1.1c-0.4-3.9-2.6-7.4-6-9.3l-168-96c-3.7-2.1-8.2-2.1-11.9,0l-51.7,29.6l139.8,139.8L345.8,166z"/>
<path d="M339.5,353.7c-3.5,0-6.9-1.3-9.5-4L35,53.2c-5.2-5.3-5.2-13.8,0-19c5.3-5.2,13.8-5.2,19,0l295,296.5
	c5.2,5.3,5.2,13.8,0,19C346.4,352.4,342.9,353.7,339.5,353.7z"/>
</svg>
