<svg xmlns="http://www.w3.org/2000/svg" fill="#5b0eeb" class="ionicon" viewBox="0 0 384 384"><title>Hide Search</title>
<path d="M233.2,100.8c23.7,23.7,32.7,57.9,24.4,89.7l29.3,29.3c7.3-16.5,11.2-34.5,11.1-52.8c0-72.3-58.8-131-131-131
	c-18.8,0-36.6,4-52.8,11.1l29.3,29.3C175.3,68.1,209.5,77.1,233.2,100.8z"/>
<path d="M167,260.6c-51.6,0-93.5-41.9-93.6-93.6c0-7.4,0.9-14.7,2.6-21.8l-29.5-29.5C39.7,131.5,36,148.8,36,167
	c0,72.3,58.8,131,131,131c17.7,0,35.2-3.6,51.3-10.4L188.8,258C181.7,259.7,174.4,260.6,167,260.6z"/>
<path d="M339,355c-3.5,0-6.9-1.3-9.5-4L34.5,54.5c-5.2-5.3-5.2-13.8,0-19c5.3-5.2,13.8-5.2,19,0l295,296.5
	c5.2,5.3,5.2,13.8,0,19C345.9,353.7,342.4,355,339,355z"/>
</svg>
