<svg xmlns="http://www.w3.org/2000/svg" fill="#5b0eeb" class="ionicon" viewBox="0 0 384 384"><title>Not Paged</title>
<path d="M372,275.9v-216c0-8-4-15.5-10.6-20c-4-2.7-8.7-4.1-13.4-4c-50.7,0.2-88.6,6.5-115.7,19.5c-8.7,4.1-16.9,9.3-24.2,15.6
	c-2.6,2.3-4.1,5.6-4.1,9v53.5l158.7,161.4C368.4,290.5,372,283.6,372,275.9z"/>
<path d="M180,80.1c0-3.4-1.5-6.7-4.1-9c-7.3-6.3-15.5-11.5-24.2-15.6c-10.5-5-22.5-9-36.3-12l64.6,65.7V80.1z"/>
<path d="M204,332.9c0,2.6,3.1,3.9,5,2.1c8.3-8.2,19.2-15.8,35.8-21.9L204,271.7V332.9z"/>
<path d="M12,274.5c0,14.5,10.3,25.4,24,25.4c53.3,0,106.8,5,138.8,35.3c2,1.9,5.2,0.5,5.2-2.3v-85.6L12,76.5V274.5z"/>
<path d="M344.2,361.4c-3.7,0-7.4-1.4-10.3-4.3L15.7,37.2c-5.6-5.7-5.6-14.9,0.1-20.5c5.7-5.6,14.9-5.6,20.5,0.1l318.2,319.9
	c5.6,5.7,5.6,14.9-0.1,20.5C351.6,360,347.9,361.4,344.2,361.4z"/>
</svg>
