<svg xmlns="http://www.w3.org/2000/svg" fill="#5b0eeb" class="ionicon" viewBox="0 0 384 384"><title>Paged</title>
<path d="M361.4,40c-4-2.7-8.7-4.1-13.4-4c-50.7,0.2-88.6,6.5-115.7,19.5c-8.7,4.1-16.9,9.3-24.2,15.6c-2.6,2.3-4.1,5.6-4.1,9v252.8
	c0,2.6,3.1,3.9,5,2.1c19.3-19.1,53-35.1,139-35.1c13.3,0,24-10.7,24-24v-216C372,51.9,368.1,44.4,361.4,40z M151.7,55.5
	C124.6,42.6,86.7,36.2,36,36c-4.8-0.1-9.5,1.3-13.4,4C15.9,44.5,12,51.9,12,59.9v214.6c0,14.5,10.3,25.4,24,25.4
	c53.3,0,106.8,5,138.8,35.3c2,1.9,5.2,0.5,5.2-2.3V80.1c0-3.4-1.5-6.7-4.1-9C168.6,64.8,160.4,59.6,151.7,55.5z"/>
</svg>
