<svg xmlns="http://www.w3.org/2000/svg" fill="#5b0eeb" viewBox="0 0 384 384">
<path d="M324,360H60c-7,0.1-13.7-3-18.1-8.3c-4.9-5.8-6.8-13.8-5.4-21.8c6.3-35.1,26.1-64.6,57.1-85.3
	c27.6-18.4,62.5-28.5,98.4-28.5s70.8,10.1,98.4,28.5c31.1,20.7,50.8,50.2,57.1,85.3c1.5,8-0.5,16-5.4,21.8
	C337.7,357,331,360.1,324,360z M249.5,48.4C234.9,32.7,214.5,24,192,24c-22.6,0-43.1,8.6-57.6,24.3c-14.7,15.8-21.8,37.4-20.2,60.6
	c3.3,45.8,38.2,83.1,77.8,83.1s74.4-37.3,77.8-83.1C271.5,85.9,264.3,64.4,249.5,48.4z"/>
</svg>
