<svg xmlns="http://www.w3.org/2000/svg" fill="#5b0eeb" class="ionicon" viewBox="0 0 384 384"><title>Save</title>
<path d="M194.8,323.9c-24.8,1.2-47.7-13-57.7-35.7c-10-22.7-5.1-49.2,12.4-66.7c17.5-17.5,44-22.5,66.7-12.4
	c22.7,10,36.8,32.9,35.7,57.7C250.5,297.7,225.7,322.5,194.8,323.9z M90,84h132c3.3,0,6,2.7,6,6v36c0,3.3-2.7,6-6,6H90
	c-3.3,0-6-2.7-6-6V90C84,86.7,86.7,84,90,84z M349.5,89.8l-55.3-55.3c-6.7-6.8-15.9-10.6-25.5-10.5H72c-26.5,0-48,21.5-48,48v240
	c0,26.5,21.5,48,48,48h240c26.5,0,48-21.5,48-48V115.3C360,105.7,356.2,96.6,349.5,89.8z"/>
<path d="M228,264c0,19.9-16.1,36-36,36s-36-16.1-36-36s16.1-36,36-36S228,244.1,228,264"/>
</svg>
