<svg xmlns="http://www.w3.org/2000/svg" fill="#5b0eeb" class="ionicon" viewBox="0 0 384 384">
<path d="M228,192c0,19.9-16.1,36-36,36s-36-16.1-36-36s16.1-36,36-36S228,172.1,228,192"/>
<path d="M251.9,194.8c-1.1,23.7-16.1,44.6-38.3,53.1c-22.2,8.6-47.3,3.3-64.1-13.5s-22.1-41.9-13.5-64.1
	c8.6-22.2,29.4-37.2,53.1-38.3c16.9-0.7,33.3,5.6,45.2,17.6C246.3,161.6,252.7,178,251.9,194.8z M352.8,225l-0.4-0.3l-23.7-18.6
	c-3-2.4-4.7-6.1-4.6-10v-8.7c-0.2-3.8,1.6-7.5,4.6-9.9l23.7-18.6l0.4-0.3c7.5-6.3,9.4-17.1,4.4-25.5l-32-55.4c0-0.1-0.1-0.1-0.1-0.2
	c-5-8.3-15.2-11.9-24.3-8.5l-0.3,0.1l-27.8,11.2c-3.6,1.4-7.6,1.1-10.9-1c-2.5-1.6-5-3-7.5-4.4c-3.3-1.8-5.6-5.1-6.1-8.9L244,36.5
	l-0.1-0.5c-1.9-9.5-10.2-16.3-19.8-16.4h-64.1c-9.8,0-18.2,7.1-19.8,16.8l-0.1,0.4l-4.2,29.8c-0.5,3.8-2.8,7-6.1,8.9
	c-2.5,1.4-5,2.8-7.5,4.4c-3.2,2-7.3,2.4-10.8,1L83.6,69.4l-0.3-0.1C74.2,65.9,64,69.5,59,77.8L58.9,78l-32.1,55.5
	c-5,8.5-3.1,19.3,4.4,25.6l0.4,0.3l23.7,18.6c3,2.4,4.7,6.1,4.6,10v8.7c0.2,3.8-1.6,7.5-4.6,9.9L31.6,225l-0.4,0.3
	c-7.5,6.3-9.4,17.1-4.4,25.5l32,55.4c0,0.1,0.1,0.1,0.1,0.2c5,8.3,15.2,11.9,24.3,8.5l0.3-0.1l27.8-11.2c3.6-1.4,7.6-1.1,10.9,1
	c2.5,1.6,5,3,7.5,4.4c3.3,1.8,5.6,5.1,6.1,8.9l4.2,29.7l0.1,0.5c1.9,9.5,10.2,16.4,19.9,16.4h64.1c9.8,0,18.2-7.1,19.8-16.8l0.1-0.4
	l4.2-29.8c0.5-3.8,2.8-7,6.1-8.9c2.6-1.4,5.1-2.8,7.5-4.4c3.2-2,7.3-2.4,10.8-1l27.8,11.2l0.3,0.1c9.1,3.4,19.4-0.2,24.4-8.5
	c0-0.1,0.1-0.1,0.1-0.2l32-55.4C362.2,242.1,360.3,231.3,352.8,225z"/>
</svg>
