<svg xmlns="http://www.w3.org/2000/svg" fill="#5b0eeb" class="ionicon" viewBox="0 0 384 384"><title>Show Poems</title>
<path d="M84,336c0,13.3,10.7,24,24,24h48c13.3,0,24-10.7,24-24v-22.5c0-0.8-0.7-1.5-1.5-1.5h-93c-0.8,0-1.5,0.7-1.5,1.5V336z
	 M180,132c0-13.3-10.7-24-24-24h-48c-13.3,0-24,10.7-24,24v21c0,1.7,1.3,3,3,3h90c1.7,0,3-1.3,3-3V132z M48,360H36
	c-13.3,0-24-10.7-24-24V84c0-13.3,10.7-24,24-24h12c13.3,0,24,10.7,24,24v252C72,349.3,61.3,360,48,360z"/>
<path d="M85.5,180h93c0.8,0,1.5,0.7,1.5,1.5v105c0,0.8-0.7,1.5-1.5,1.5h-93c-0.8,0-1.5-0.7-1.5-1.5v-105C84,180.7,84.7,180,85.5,180
	z"/>
<path d="M371.9,334.1l-24.2-255c-1.1-11.7-12.7-20.3-25.9-19L298,62.4c-13.2,1.3-23,11.8-21.9,23.5l24.2,255
	c1.1,11.7,12.7,20.3,25.9,19l23.9-2.3C363.2,356.4,373,345.8,371.9,334.1z M240,360h-24c-13.3,0-24-10.7-24-24V48
	c0-13.3,10.7-24,24-24h24c13.3,0,24,10.7,24,24v288C264,349.3,253.3,360,240,360z"/>
</svg>
