<svg xmlns="http://www.w3.org/2000/svg" fill="#5b0eeb" class="ionicon" viewBox="0 0 384 384"><title>Show Notes</title>
<path d="M299.5,67.5L164.1,202.6c-0.8,0.8-1.4,1.8-1.7,3l-6.3,18.7c-0.7,2.2,1.4,4.3,3.6,3.6l18.6-6.3c1.1-0.3,2.1-0.9,3-1.7
	L316.5,84.5c2.6-2.6,2.6-6.9,0-9.5l-7.5-7.5C306.4,64.9,302.1,64.9,299.5,67.5z M345,39.9c-2.2-2.4-5.3-3.9-8.6-3.9
	c-3.3-0.1-6.5,1.2-8.8,3.5l-9.3,9.2c-2.3,2.3-2.3,6.1,0,8.5l8.5,8.5c1.1,1.1,2.7,1.8,4.3,1.8c1.6,0,3.1-0.6,4.3-1.8l9-9
	C348.9,52.2,349.3,44.7,345,39.9z"/>
<path d="M289.8,145.2l-91.4,91.6c-3.5,3.5-7.9,6.2-12.7,7.7l-19.4,6.5c-9.4,2.6-19.5,0-26.4-6.9c-6.9-6.9-9.5-17-6.9-26.4l6.5-19.4
	c1.5-4.8,4.1-9.1,7.6-12.7l91.6-91.4c1.7-1.7,2.2-4.3,1.3-6.5c-0.9-2.2-3.1-3.7-5.5-3.7H78c-23.2,0-42,18.8-42,42v180
	c0,23.2,18.8,42,42,42h180c23.2,0,42-18.8,42-42V149.5c0-2.4-1.5-4.6-3.7-5.5C294.1,143,291.5,143.5,289.8,145.2z"/>
</svg>
