<svg xmlns="http://www.w3.org/2000/svg" fill="#5b0eeb" class="ionicon" viewBox="0 0 384 384"><title>Show Commentary</title>
<path d="M264,186c-9.7,0-18.5-5.8-22.2-14.8c-3.7-9-1.7-19.3,5.2-26.2c6.9-6.9,17.2-8.9,26.2-5.2c9,3.7,14.8,12.5,14.8,22.2
	C288,175.3,277.3,186,264,186z M192,186c-9.7,0-18.5-5.8-22.2-14.8c-3.7-9-1.7-19.3,5.2-26.2c6.9-6.9,17.2-8.9,26.2-5.2
	c9,3.7,14.8,12.5,14.8,22.2C216,175.3,205.3,186,192,186z M120,186c-9.7,0-18.5-5.8-22.2-14.8c-3.7-9-1.7-19.3,5.2-26.2
	c6.9-6.9,17.2-8.9,26.2-5.2c9,3.7,14.8,12.5,14.8,22.2C144,175.3,133.3,186,120,186z M306,36H78c-29.8,0-54,24.2-54,54v144
	c0,29.8,24.2,54,54,54h18v48c0,4.7,2.7,8.9,6.9,10.9c4.2,2,9.2,1.3,12.8-1.7l68.6-57.2H306c29.8,0,54-24.2,54-54V90
	C360,60.2,335.8,36,306,36z"/>
</svg>
