<svg xmlns="http://www.w3.org/2000/svg" fill="#5b0eeb" class="ionicon" viewBox="0 0 512 512"><title>Show Numbers</title>
<path d="M448,392H160c-13.3,0-24-10.7-24-24s10.7-24,24-24h288c13.3,0,24,10.7,24,24S461.3,392,448,392z M448,280H160
	c-13.3,0-24-10.7-24-24c0-13.3,10.7-24,24-24h288c13.3,0,24,10.7,24,24C472,269.3,461.3,280,448,280z M448,168H160
	c-13.3,0-24-10.7-24-24s10.7-24,24-24h288c13.3,0,24,10.7,24,24S461.3,168,448,168z"/>
<path d="M80,176c-17.6,0-32-14.4-32-32s14.4-32,32-32s32,14.4,32,32S97.6,176,80,176z M80,144C80,144,80,144,80,144L80,144z"/>
<path d="M80,288c-17.6,0-32-14.4-32-32c0-17.6,14.4-32,32-32s32,14.4,32,32C112,273.6,97.6,288,80,288z M80,256
	C80,256,80,256,80,256L80,256z"/>
<path d="M80,400c-17.6,0-32-14.4-32-32s14.4-32,32-32s32,14.4,32,32S97.6,400,80,400z M80,368C80,368,80,368,80,368L80,368z"/>
</svg>
