<svg xmlns="http://www.w3.org/2000/svg" xmlns:xlink="http://www.w3.org/1999/xlink" fill="#ffffff" viewBox="0 0 384 384">
<path d="M295.5,360c-2.5,0-5-0.8-7-2.2L192,287.8l-96.5,69.9c-4.2,3.1-10,3-14.2-0.1c-4.2-3.1-5.9-8.6-4.3-13.5l37.6-111.4
	l-97.5-66.9c-4.3-3-6.2-8.4-4.7-13.4c1.6-5,6.2-8.4,11.4-8.5h120.3l36.3-111.7c1.6-4.9,6.2-8.3,11.4-8.3s9.8,3.4,11.4,8.3L239.7,144
	H360c5.3,0,9.9,3.4,11.5,8.4c1.6,5-0.3,10.5-4.7,13.5l-97.5,66.8l37.6,111.4c1.2,3.7,0.6,7.7-1.6,10.8
	C303,358.1,299.4,360,295.5,360z"/>
</svg>
