<svg xmlns="http://www.w3.org/2000/svg" xmlns:xlink="http://www.w3.org/1999/xlink" viewBox="0 0 512 512">
<style type="text/css">
	.st0{fill:#ffffff;}
</style>
<path class="st0" d="M394,480c-3.3,0-6.6-1-9.4-3L256,383.8L127.4,477c-5.6,4.1-13.3,4.1-18.9-0.1c-5.6-4.1-7.9-11.4-5.7-18
	L153,310.4L23,221.2c-5.8-4-8.3-11.2-6.2-17.9C18.8,196.6,25,192,32,192h160.4l48.4-148.9c2.1-6.6,8.3-11.1,15.2-11.1
	c6.9,0,13.1,4.5,15.2,11.1L319.6,192H480c7,0,13.2,4.6,15.3,11.3c2.1,6.7-0.5,14-6.2,17.9l-130,89.2l50.1,148.5
	c2.2,6.6-0.1,13.9-5.7,18C400.7,479,397.3,480,394,480z M256,348c3.3,0,6.6,1,9.4,3l97.4,70.6l-38-112.5c-2.3-6.8,0.2-14.3,6.1-18.3
	l97.4-66.8H308c-6.9,0-13.1-4.5-15.2-11.1L256,99.8l-36.8,113.2c-2.1,6.6-8.3,11.1-15.2,11.1H83.6l97.4,66.8
	c5.9,4,8.4,11.5,6.1,18.3l-38,112.5l97.4-70.6C249.4,349,252.7,348,256,348z"/>
<path class="st0" d="M256,48v316L118,464l54-160L32,208h172L256,48z"/>
</svg>
