<svg xmlns="http://www.w3.org/2000/svg" fill="#5b0eeb" class="ionicon" viewBox="0 0 384 384"><title>Text Not Selectable</title>
<path d="M192,204c-6.6,0-12,4.7-12,10.5V228h24v-13.5C204,208.7,198.6,204,192,204z M216,144h97.4c1.3,0,2-1.6,1.1-2.6L206.6,33.6
	c-0.9-0.9-2.6-0.3-2.6,1.1V132C204,138.6,209.4,144,216,144z"/>
<path d="M252,288c0,13.3-10.7,24-24,24h-72c-13.3,0-24-10.7-24-24v-36c0-13.3,10.7-24,24-24v-13.5c0-19,16.1-34.5,36-34.5
	s36,15.5,36,34.5V228c13.3,0,24,10.7,24,24V288z M321,168H216c-19.9,0-36-16.1-36-36V27c0-1.7-1.3-3-3-3h-69c-26.5,0-48,21.5-48,48
	v240c0,26.5,21.5,48,48,48h168c26.5,0,48-21.5,48-48V171C324,169.3,322.7,168,321,168z"/>
</svg>
