<svg xmlns="http://www.w3.org/2000/svg" fill="#5b0eeb" class="ionicon" viewBox="0 0 384 384"><title>Text Selectable</title>
<path d="M252,228H132c-6.6,0-12-5.4-12-12s5.4-12,12-12h120c6.6,0,12,5.4,12,12S258.6,228,252,228z M252,288H132
	c-6.6,0-12-5.4-12-12s5.4-12,12-12h120c6.6,0,12,5.4,12,12S258.6,288,252,288z M321,168H216c-19.9,0-36-16.1-36-36V27
	c0-1.7-1.3-3-3-3h-69c-26.5,0-48,21.5-48,48v240c0,26.5,21.5,48,48,48h168c26.5,0,48-21.5,48-48V171C324,169.3,322.7,168,321,168z"
	/>
<path d="M314.4,141.4L206.6,33.6c-0.9-0.9-2.6-0.3-2.6,1.1V132c0,6.6,5.4,12,12,12h97.4C314.7,144,315.4,142.4,314.4,141.4z"/>
</svg>
