
<svg xmlns="http://www.w3.org/2000/svg" fill="#5b0eeb" class="ionicon" viewBox="0 0 384 384"><title>Tutor Notes</title>
<path d="M192,276c-2.1,0-4.1-0.5-6-1.6l-105-60c-1.9-1.1-4.1-1.1-6,0c-1.9,1.1-3,3.1-3,5.2V276c0,4.4,2.4,8.4,6.2,10.5l108,60
	c3.6,2,8,2,11.7,0l108-60c3.8-2.1,6.2-6.1,6.2-10.5v-56.4c0-2.1-1.1-4.1-3-5.2c-1.9-1.1-4.1-1.1-6,0l-105,60
	C196.1,275.5,194.1,276,192,276z"/>
<path d="M371.9,142.9L371.9,142.9c-0.4-3.9-2.6-7.4-6-9.3l-168-96c-3.7-2.1-8.2-2.1-11.9,0l-168,96c-3.7,2.1-6,6.1-6,10.4
	s2.3,8.3,6,10.4l168,96c3.7,2.1,8.2,2.1,11.9,0L345.8,166c1-0.6,2.3,0.1,2.3,1.3v108.4c0,6.5,5,12,11.4,12.3c3.3,0.2,6.5-1,8.9-3.3
	c2.4-2.3,3.7-5.4,3.7-8.7V144C372,143.6,372,143.3,371.9,142.9z"/>
</svg>
