<svg xmlns="http://www.w3.org/2000/svg" fill="#5b0eeb" class="ionicon" viewBox="0 0 384 384" ><title>Unlink</title>
<path d="M276,282h-42.5c-9.9,0-18-8.1-18-18c0-9.9,8.1-18,18-18H276c29.8,0,54-24.2,54-54c0-29.8-24.2-54-54-54h-41.6
	c-9.9,0-18-8.1-18-18s8.1-18,18-18H276c49.6,0,90,40.4,90,90S325.6,282,276,282z M150.5,282H108c-49.6,0-90-40.4-90-90
	s40.4-90,90-90h41.6c9.9,0,18,8.1,18,18s-8.1,18-18,18H108c-29.8,0-54,24.2-54,54c0,29.8,24.2,54,54,54h42.5c9.9,0,18,8.1,18,18
	C168.5,273.9,160.4,282,150.5,282z"/>
</svg>
