<svg version="1.1" xmlns="http://www.w3.org/2000/svg" fill="#5b0eeb" viewBox="0 0 384 384"><title>View Friesian Only</title>
<style type="text/css">
	.st0{fill:none;}
	.st1{fill:none;}
</style>
<path class="st0" d="M173.8,121.2c0,1.5-0.1,2.8-0.2,4c-0.2,1.1-0.4,2-0.8,2.7c-0.4,0.7-0.9,1.2-1.4,1.5c-0.5,0.3-1.1,0.5-1.6,0.5
	h-56.9v52.9h53.8c0.6,0,1.1,0.1,1.6,0.4c0.5,0.3,1,0.7,1.4,1.4c0.4,0.6,0.7,1.5,0.8,2.6c0.2,1.1,0.2,2.5,0.2,4.1
	c0,1.5-0.1,2.8-0.2,3.9c-0.2,1.1-0.4,2-0.8,2.6c-0.4,0.7-0.9,1.2-1.4,1.6c-0.5,0.4-1.1,0.5-1.6,0.5h-53.8v64.7
	c0,0.6-0.2,1.1-0.5,1.6c-0.3,0.5-0.9,0.9-1.7,1.2c-0.8,0.3-1.8,0.5-3.1,0.7c-1.3,0.2-3,0.3-5,0.3c-1.9,0-3.6-0.1-4.9-0.3
	c-1.4-0.2-2.4-0.4-3.2-0.7c-0.8-0.3-1.4-0.7-1.7-1.2c-0.3-0.5-0.5-1.1-0.5-1.6V120.8c0-3.1,0.8-5.3,2.5-6.5c1.6-1.2,3.4-1.9,5.2-1.9
	h69.9c0.6,0,1.1,0.2,1.6,0.5c0.5,0.3,1,0.8,1.4,1.6s0.7,1.7,0.8,2.8C173.7,118.4,173.8,119.7,173.8,121.2z"/>
<path class="st0" d="M173.8,121.2c0,1.5-0.1,2.8-0.2,4c-0.2,1.1-0.4,2-0.8,2.7c-0.4,0.7-0.9,1.2-1.4,1.5c-0.5,0.3-1.1,0.5-1.6,0.5
	h-56.9v52.9h53.8c0.6,0,1.1,0.1,1.6,0.4c0.5,0.3,1,0.7,1.4,1.4c0.4,0.6,0.7,1.5,0.8,2.6c0.2,1.1,0.2,2.5,0.2,4.1
	c0,1.5-0.1,2.8-0.2,3.9c-0.2,1.1-0.4,2-0.8,2.6c-0.4,0.7-0.9,1.2-1.4,1.6c-0.5,0.4-1.1,0.5-1.6,0.5h-53.8v64.7
	c0,0.6-0.2,1.1-0.5,1.6c-0.3,0.5-0.9,0.9-1.7,1.2c-0.8,0.3-1.8,0.5-3.1,0.7c-1.3,0.2-3,0.3-5,0.3c-1.9,0-3.6-0.1-4.9-0.3
	c-1.4-0.2-2.4-0.4-3.2-0.7c-0.8-0.3-1.4-0.7-1.7-1.2c-0.3-0.5-0.5-1.1-0.5-1.6V120.8c0-3.1,0.8-5.3,2.5-6.5c1.6-1.2,3.4-1.9,5.2-1.9
	h69.9c0.6,0,1.1,0.2,1.6,0.5c0.5,0.3,1,0.8,1.4,1.6s0.7,1.7,0.8,2.8C173.7,118.4,173.8,119.7,173.8,121.2z"/>
<path class="st1" d="M301.4,37.2H82.4C57.4,37.2,37,57.6,37,82.5v219.1c0,24.9,20.4,45.4,45.4,45.4h219.1
	c24.9,0,45.4-20.4,45.4-45.4V82.5C346.8,57.6,326.4,37.2,301.4,37.2z M173.5,125.2c-0.2,1.1-0.4,2-0.8,2.7c-0.4,0.7-0.9,1.2-1.4,1.5
	c-0.5,0.3-1.1,0.5-1.6,0.5h-56.9v52.9h53.8c0.6,0,1.1,0.1,1.6,0.4c0.5,0.3,1,0.7,1.4,1.4c0.4,0.6,0.7,1.5,0.8,2.6
	c0.2,1.1,0.2,2.5,0.2,4.1c0,1.5-0.1,2.8-0.2,3.9c-0.2,1.1-0.4,2-0.8,2.6c-0.4,0.7-0.9,1.2-1.4,1.6c-0.5,0.4-1.1,0.5-1.6,0.5h-53.8
	v64.7c0,0.6-0.2,1.1-0.5,1.6c-0.3,0.5-0.9,0.9-1.7,1.2c-0.8,0.3-1.8,0.5-3.1,0.7c-1.3,0.2-3,0.3-5,0.3c-1.9,0-3.6-0.1-4.9-0.3
	c-1.4-0.2-2.4-0.4-3.2-0.7c-0.8-0.3-1.4-0.7-1.7-1.2c-0.3-0.5-0.5-1.1-0.5-1.6V120.8c0-3.1,0.8-5.3,2.5-6.5c1.6-1.2,3.4-1.9,5.2-1.9
	h69.9c0.6,0,1.1,0.2,1.6,0.5c0.5,0.3,1,0.8,1.4,1.6s0.7,1.7,0.8,2.8c0.2,1.2,0.2,2.5,0.2,4C173.8,122.8,173.7,124.1,173.5,125.2z"/>
<path class="st1" d="M172.7,114.4c-0.4-0.7-0.9-1.2-1.4-1.6c-0.5-0.3-1.1-0.5-1.6-0.5H99.8c-1.8,0-3.6,0.6-5.2,1.9
	c-1.6,1.2-2.5,3.4-2.5,6.5v143.9c0,0.6,0.2,1.1,0.5,1.6c0.3,0.5,0.9,0.9,1.7,1.2c0.8,0.3,1.9,0.5,3.2,0.7c1.4,0.2,3,0.3,4.9,0.3
	c2.1,0,3.8-0.1,5-0.3c1.3-0.2,2.3-0.4,3.1-0.7c0.8-0.3,1.4-0.7,1.7-1.2c0.3-0.5,0.5-1.1,0.5-1.6v-64.7h53.8c0.6,0,1.1-0.2,1.6-0.5
	c0.5-0.4,1-0.9,1.4-1.6c0.4-0.7,0.7-1.6,0.8-2.6c0.2-1.1,0.2-2.4,0.2-3.9c0-1.7-0.1-3.1-0.2-4.1c-0.2-1.1-0.4-1.9-0.8-2.6
	c-0.4-0.6-0.9-1.1-1.4-1.4c-0.5-0.3-1.1-0.4-1.6-0.4h-53.8v-52.9h56.9c0.6,0,1.1-0.2,1.6-0.5c0.5-0.3,1-0.8,1.4-1.5
	c0.4-0.7,0.7-1.6,0.8-2.7c0.2-1.1,0.2-2.4,0.2-4c0-1.5-0.1-2.9-0.2-4C173.4,116.1,173.1,115.1,172.7,114.4z"/>
<path class="st0" d="M254.6,207.4v57.3c0,0.6-0.2,1.2-0.5,1.7s-0.9,0.9-1.7,1.1c-0.8,0.3-1.9,0.5-3.2,0.7c-1.4,0.2-3,0.3-4.9,0.3
	c-2,0-3.6-0.1-5-0.3c-1.3-0.2-2.4-0.4-3.2-0.7c-0.8-0.3-1.4-0.7-1.7-1.1s-0.5-1-0.5-1.7v-57.3l-44-87.7c-0.9-1.8-1.4-3.3-1.6-4.3
	c-0.2-1,0-1.8,0.6-2.4c0.6-0.6,1.7-0.9,3.2-1.1c1.6-0.2,3.7-0.2,6.3-0.2c2.4,0,4.3,0.1,5.8,0.2c1.5,0.2,2.7,0.4,3.5,0.7
	c0.9,0.3,1.5,0.7,2,1.2c0.4,0.5,0.9,1.2,1.3,2l21.5,44.7c2,4.2,4,8.7,6,13.3c2,4.6,4,9.3,6.1,14.1h0.2c1.8-4.6,3.7-9.1,5.7-13.6
	c1.9-4.5,3.9-9,5.9-13.4l21.6-44.9c0.2-0.8,0.6-1.5,1-2c0.4-0.6,1-1,1.8-1.3c0.8-0.3,1.8-0.5,3.2-0.7c1.4-0.2,3.1-0.2,5.2-0.2
	c2.9,0,5.1,0.1,6.8,0.3c1.6,0.2,2.8,0.6,3.4,1.1c0.6,0.6,0.9,1.4,0.7,2.4c-0.2,1-0.7,2.4-1.6,4.2L254.6,207.4z"/>
<path d="M301.4,37.2H82.4C57.4,37.2,37,57.6,37,82.5v219.1c0,24.9,20.4,45.4,45.4,45.4h219.1c24.9,0,45.4-20.4,45.4-45.4V82.5
	C346.8,57.6,326.4,37.2,301.4,37.2z M173.5,125.2c-0.2,1.1-0.4,2-0.8,2.7c-0.4,0.7-0.9,1.2-1.4,1.5c-0.5,0.3-1.1,0.5-1.6,0.5h-56.9
	v52.9h53.8c0.6,0,1.1,0.1,1.6,0.4c0.5,0.3,1,0.7,1.4,1.4c0.4,0.6,0.7,1.5,0.8,2.6c0.2,1.1,0.2,2.5,0.2,4.1c0,1.5-0.1,2.8-0.2,3.9
	c-0.2,1.1-0.4,2-0.8,2.6c-0.4,0.7-0.9,1.2-1.4,1.6c-0.5,0.4-1.1,0.5-1.6,0.5h-53.8v64.7c0,0.6-0.2,1.1-0.5,1.6
	c-0.3,0.5-0.9,0.9-1.7,1.2c-0.8,0.3-1.8,0.5-3.1,0.7c-1.3,0.2-3,0.3-5,0.3c-1.9,0-3.6-0.1-4.9-0.3c-1.4-0.2-2.4-0.4-3.2-0.7
	c-0.8-0.3-1.4-0.7-1.7-1.2c-0.3-0.5-0.5-1.1-0.5-1.6V120.8c0-3.1,0.8-5.3,2.5-6.5c1.6-1.2,3.4-1.9,5.2-1.9h69.9
	c0.6,0,1.1,0.2,1.6,0.5c0.5,0.3,1,0.8,1.4,1.6s0.7,1.7,0.8,2.8c0.2,1.2,0.2,2.5,0.2,4C173.8,122.8,173.7,124.1,173.5,125.2z
	 M300.2,115.5c-0.2,1-0.7,2.4-1.6,4.2l-44,87.7v57.3c0,0.6-0.2,1.2-0.5,1.7s-0.9,0.9-1.7,1.1c-0.8,0.3-1.9,0.5-3.2,0.7
	c-1.4,0.2-3,0.3-4.9,0.3c-2,0-3.6-0.1-5-0.3c-1.3-0.2-2.4-0.4-3.2-0.7c-0.8-0.3-1.4-0.7-1.7-1.1s-0.5-1-0.5-1.7v-57.3l-44-87.7
	c-0.9-1.8-1.4-3.3-1.6-4.3c-0.2-1,0-1.8,0.6-2.4c0.6-0.6,1.7-0.9,3.2-1.1c1.6-0.2,3.7-0.2,6.3-0.2c2.4,0,4.3,0.1,5.8,0.2
	c1.5,0.2,2.7,0.4,3.5,0.7c0.9,0.3,1.5,0.7,2,1.2c0.4,0.5,0.9,1.2,1.3,2l21.5,44.7c2,4.2,4,8.7,6,13.3c2,4.6,4,9.3,6.1,14.1h0.2
	c1.8-4.6,3.7-9.1,5.7-13.6c1.9-4.5,3.9-9,5.9-13.4l21.6-44.9c0.2-0.8,0.6-1.5,1-2c0.4-0.6,1-1,1.8-1.3c0.8-0.3,1.8-0.5,3.2-0.7
	c1.4-0.2,3.1-0.2,5.2-0.2c2.9,0,5.1,0.1,6.8,0.3c1.6,0.2,2.8,0.6,3.4,1.1C300.2,113.6,300.4,114.4,300.2,115.5z"/>
</svg>
