<svg version="1.1" xmlns="http://www.w3.org/2000/svg" fill="#5b0eeb" viewBox="0 0 384 384"><title>View Dutch Only</title>
<style type="text/css">
	.st0{fill:none;}
	.st1{fill:none;}
</style>
<path class="st0" d="M301.4,37.2H82.4C57.4,37.2,37,57.6,37,82.5v219.1c0,24.9,20.4,45.4,45.4,45.4h219.1
	c24.9,0,45.4-20.4,45.4-45.4V82.5C346.8,57.6,326.4,37.2,301.4,37.2z M320.3,262.8c-0.2,1.1-0.4,2-0.8,2.8c-0.4,0.8-0.8,1.3-1.3,1.7
	c-0.5,0.4-1.1,0.5-1.9,0.5h-68.7c-1.8,0-3.6-0.6-5.2-1.9c-1.6-1.2-2.5-3.4-2.5-6.5V115.5c0-0.6,0.2-1.2,0.5-1.7
	c0.3-0.5,0.9-0.9,1.7-1.1c0.8-0.3,1.9-0.5,3.2-0.7c1.4-0.2,3-0.3,4.9-0.3c2,0,3.7,0.1,5,0.3c1.3,0.2,2.4,0.4,3.2,0.7
	c0.8,0.3,1.4,0.7,1.7,1.1c0.3,0.5,0.5,1,0.5,1.7v134.4h55.7c0.7,0,1.3,0.2,1.9,0.5c0.5,0.4,1,0.9,1.3,1.6c0.4,0.7,0.6,1.6,0.8,2.7
	c0.2,1.1,0.2,2.5,0.2,4.1C320.5,260.4,320.4,261.7,320.3,262.8z"/>
<path class="st0" d="M319.5,252c-0.4-0.7-0.8-1.2-1.3-1.6c-0.5-0.4-1.1-0.5-1.9-0.5h-55.7V115.5c0-0.6-0.2-1.2-0.5-1.7
	c-0.3-0.5-0.9-0.9-1.7-1.1c-0.8-0.3-1.9-0.5-3.2-0.7c-1.3-0.2-3-0.3-5-0.3c-1.9,0-3.6,0.1-4.9,0.3c-1.4,0.2-2.4,0.4-3.2,0.7
	c-0.8,0.3-1.4,0.7-1.7,1.1c-0.3,0.5-0.5,1-0.5,1.7v143.9c0,3.1,0.8,5.3,2.5,6.5c1.6,1.2,3.4,1.9,5.2,1.9h68.7c0.7,0,1.3-0.2,1.9-0.5
	c0.5-0.4,1-0.9,1.3-1.7c0.4-0.8,0.6-1.7,0.8-2.8c0.2-1.1,0.2-2.4,0.2-4c0-1.6-0.1-3-0.2-4.1C320.1,253.6,319.8,252.7,319.5,252z"/>
<path class="st1" d="M198.6,259.2c0,1.6-0.3,3-0.8,4.1c-0.5,1.1-1.2,2-2.1,2.8s-1.8,1.2-2.9,1.6c-1.1,0.3-2.2,0.5-3.2,0.5h-6.8
	c-2.2,0-4-0.2-5.7-0.7c-1.6-0.4-3.1-1.2-4.6-2.4c-1.4-1.2-2.9-2.7-4.3-4.7c-1.4-2-3-4.6-4.6-7.7l-47.4-88.4c-2.5-4.6-5-9.3-7.5-14.4
	c-2.5-5-4.9-9.9-7-14.6h-0.2c0.2,5.8,0.3,11.7,0.4,17.7c0.1,6,0.1,12,0.1,17.9v93.8c0,0.6-0.2,1.1-0.5,1.6c-0.3,0.5-0.9,0.9-1.7,1.2
	c-0.8,0.3-1.9,0.5-3.2,0.7c-1.3,0.2-3,0.3-5,0.3c-2,0-3.7-0.1-5-0.3c-1.3-0.2-2.3-0.4-3.1-0.7c-0.8-0.3-1.3-0.7-1.6-1.2
	c-0.3-0.5-0.5-1.1-0.5-1.6V121.2c0-3.2,0.9-5.5,2.7-6.8c1.8-1.4,3.8-2,6-2H100c2.4,0,4.4,0.2,6,0.6c1.6,0.4,3.1,1.1,4.3,2
	c1.3,0.9,2.5,2.2,3.7,3.8c1.2,1.6,2.5,3.7,3.8,6.2l36.5,68.2c2.2,4.2,4.4,8.2,6.5,12.2s4.1,7.9,6,11.7c1.9,3.8,3.8,7.6,5.7,11.4
	c1.9,3.7,3.8,7.5,5.6,11.2h0.1c-0.2-6.3-0.3-12.9-0.3-19.8c0-6.8-0.1-13.4-0.1-19.8v-84.3c0-0.6,0.2-1.1,0.5-1.6s0.9-0.9,1.7-1.3
	c0.8-0.4,1.9-0.6,3.2-0.8c1.3-0.2,3-0.2,5.1-0.2c1.9,0,3.5,0.1,4.8,0.2c1.3,0.2,2.4,0.4,3.2,0.8c0.8,0.4,1.3,0.8,1.6,1.3
	s0.5,1,0.5,1.6V259.2z"/>
<path d="M301.4,37.2H82.4C57.4,37.2,37,57.6,37,82.5v219.1c0,24.9,20.4,45.4,45.4,45.4h219.1c24.9,0,45.4-20.4,45.4-45.4V82.5
	C346.8,57.6,326.4,37.2,301.4,37.2z M198.6,259.2c0,1.6-0.3,3-0.8,4.1c-0.5,1.1-1.2,2-2.1,2.8s-1.8,1.2-2.9,1.6
	c-1.1,0.3-2.2,0.5-3.2,0.5h-6.8c-2.2,0-4-0.2-5.7-0.7c-1.6-0.4-3.1-1.2-4.6-2.4c-1.4-1.2-2.9-2.7-4.3-4.7c-1.4-2-3-4.6-4.6-7.7
	l-47.4-88.4c-2.5-4.6-5-9.3-7.5-14.4c-2.5-5-4.9-9.9-7-14.6h-0.2c0.2,5.8,0.3,11.7,0.4,17.7c0.1,6,0.1,12,0.1,17.9v93.8
	c0,0.6-0.2,1.1-0.5,1.6c-0.3,0.5-0.9,0.9-1.7,1.2c-0.8,0.3-1.9,0.5-3.2,0.7c-1.3,0.2-3,0.3-5,0.3c-2,0-3.7-0.1-5-0.3
	c-1.3-0.2-2.3-0.4-3.1-0.7c-0.8-0.3-1.3-0.7-1.6-1.2c-0.3-0.5-0.5-1.1-0.5-1.6V121.2c0-3.2,0.9-5.5,2.7-6.8c1.8-1.4,3.8-2,6-2H100
	c2.4,0,4.4,0.2,6,0.6c1.6,0.4,3.1,1.1,4.3,2c1.3,0.9,2.5,2.2,3.7,3.8c1.2,1.6,2.5,3.7,3.8,6.2l36.5,68.2c2.2,4.2,4.4,8.2,6.5,12.2
	s4.1,7.9,6,11.7c1.9,3.8,3.8,7.6,5.7,11.4c1.9,3.7,3.8,7.5,5.6,11.2h0.1c-0.2-6.3-0.3-12.9-0.3-19.8c0-6.8-0.1-13.4-0.1-19.8v-84.3
	c0-0.6,0.2-1.1,0.5-1.6s0.9-0.9,1.7-1.3c0.8-0.4,1.9-0.6,3.2-0.8c1.3-0.2,3-0.2,5.1-0.2c1.9,0,3.5,0.1,4.8,0.2
	c1.3,0.2,2.4,0.4,3.2,0.8c0.8,0.4,1.3,0.8,1.6,1.3s0.5,1,0.5,1.6V259.2z M320.3,262.8c-0.2,1.1-0.4,2-0.8,2.8
	c-0.4,0.8-0.8,1.3-1.3,1.7c-0.5,0.4-1.1,0.5-1.9,0.5h-68.7c-1.8,0-3.6-0.6-5.2-1.9c-1.6-1.2-2.5-3.4-2.5-6.5V115.5
	c0-0.6,0.2-1.2,0.5-1.7c0.3-0.5,0.9-0.9,1.7-1.1c0.8-0.3,1.9-0.5,3.2-0.7c1.4-0.2,3-0.3,4.9-0.3c2,0,3.7,0.1,5,0.3
	c1.3,0.2,2.4,0.4,3.2,0.7c0.8,0.3,1.4,0.7,1.7,1.1c0.3,0.5,0.5,1,0.5,1.7v134.4h55.7c0.7,0,1.3,0.2,1.9,0.5c0.5,0.4,1,0.9,1.3,1.6
	c0.4,0.7,0.6,1.6,0.8,2.7c0.2,1.1,0.2,2.5,0.2,4.1C320.5,260.4,320.4,261.7,320.3,262.8z"/>
<path class="st1" d="M320.5,258.8c0,1.6-0.1,2.9-0.2,4c-0.2,1.1-0.4,2-0.8,2.8c-0.4,0.8-0.8,1.3-1.3,1.7c-0.5,0.4-1.1,0.5-1.9,0.5
	h-68.7c-1.8,0-3.6-0.6-5.2-1.9c-1.6-1.2-2.5-3.4-2.5-6.5V115.5c0-0.6,0.2-1.2,0.5-1.7c0.3-0.5,0.9-0.9,1.7-1.1
	c0.8-0.3,1.9-0.5,3.2-0.7c1.4-0.2,3-0.3,4.9-0.3c2,0,3.7,0.1,5,0.3c1.3,0.2,2.4,0.4,3.2,0.7c0.8,0.3,1.4,0.7,1.7,1.1
	c0.3,0.5,0.5,1,0.5,1.7v134.4h55.7c0.7,0,1.3,0.2,1.9,0.5c0.5,0.4,1,0.9,1.3,1.6c0.4,0.7,0.6,1.6,0.8,2.7
	C320.4,255.8,320.5,257.2,320.5,258.8z"/>
<path class="st1" d="M320.5,258.8c0,1.6-0.1,2.9-0.2,4c-0.2,1.1-0.4,2-0.8,2.8c-0.4,0.8-0.8,1.3-1.3,1.7c-0.5,0.4-1.1,0.5-1.9,0.5
	h-68.7c-1.8,0-3.6-0.6-5.2-1.9c-1.6-1.2-2.5-3.4-2.5-6.5V115.5c0-0.6,0.2-1.2,0.5-1.7c0.3-0.5,0.9-0.9,1.7-1.1
	c0.8-0.3,1.9-0.5,3.2-0.7c1.4-0.2,3-0.3,4.9-0.3c2,0,3.7,0.1,5,0.3c1.3,0.2,2.4,0.4,3.2,0.7c0.8,0.3,1.4,0.7,1.7,1.1
	c0.3,0.5,0.5,1,0.5,1.7v134.4h55.7c0.7,0,1.3,0.2,1.9,0.5c0.5,0.4,1,0.9,1.3,1.6c0.4,0.7,0.6,1.6,0.8,2.7
	C320.4,255.8,320.5,257.2,320.5,258.8z"/>
</svg>
